<?xml version="1.0" encoding="UTF-8"?><svg id="Capa_1" xmlns="http://www.w3.org/2000/svg" width="772" height="468" viewBox="0 0 772 468"><defs><style>.cls-1{stroke-width:0px;}</style></defs><path class="cls-1" d="M572.4,398.7c-4-1.4-8.1.2-11.9,1.6-.7-4.3-1.3-8.6-1.8-13-1-9.5-1.4-19.1-1.6-28.7,0-4.7,0-9.3,0-14,0-4-.5-7.9-.7-11.9,0-1.4-2-1-2.2.1-.5,2.7-1.9,5.2-3.1,7.7-1.2,2.7-2.5,5.3-3.8,8-2.8,5.6-5.5,11.2-8,16.9-4.6,10.3-9.1,21-10.9,32.2-.7,4.1-1.2,9.7.4,13.6,1.6,3.8,5.2,3,8.5,2,5.5-1.7,10.6-4.9,15.8-7.3,1.9-.9,3.8-1.7,5.7-2.5,1,5.4,2.3,10.8,3.8,16.2,1.2,4.4,2.7,8.8,4.1,13.2.9,2.5,1.3,6.7,4,8.1,1.3.6,2.5-1.2,1.2-1.8-2.2-1.1-3.2-7.1-3.9-9.3-1.6-4.9-3.1-9.8-4.4-14.8-1.1-4.1-2-8.1-2.7-12.3.1,0,.3-.1.4-.2,3.2-1.2,7-2.8,10.4-1.6,1.4.5,2.1-1.6.7-2.1ZM545.4,407.3c-2.9,1.5-13.1,7.9-14.7,2.8-1.6-5.2-.4-11.6.8-16.8,2.5-10.7,7.1-21,11.6-31,2.3-5,4.8-10,7.2-14.9,1.4-2.8,3-5.6,4.2-8.6.2,2.6.3,5.2.3,7.9,0,4.7,0,9.4.1,14.1.2,9.8.7,19.6,1.8,29.3.4,3.8,1,7.5,1.6,11.2-4.4,1.8-8.8,3.9-13,6.1Z"/><path class="cls-1" d="M599.5,352.2s0,0,0,0c.1,0,.2.2.3.3.3.3.5.5.8.7.4.4,1.3.2,1.5-.3.3-.6.5-1.3.3-1.9-.2-.7-.7-1.3-1.5-1.5-.5-.1-1,0-1.3.4,0,.1-.1.3-.2.4-.4.2-.6.7-.5,1.1,0,0,0,0,0,0,0,.3.2.5.4.6,0,0,0,0,0,0,0,0,0,0,0,0ZM601.7,351c0-.2,0-.1,0,0,0,0,0,0,0,0ZM600.1,352.4s0,0,0,0c0,0,0,0,0,0,0,0,0,0,0,0Z"/><path class="cls-1" d="M745.8,350c-5,5.7-11.7,12.6-20,11.4-5-.7-8.9-5-14.2-4.5-3.7.3-6.8,3.3-9.8,5.3-1.3.8-2.9,1.8-4.5,1.3-2.2-.7-3.2-4.1-3.8-6.1,0,0,0,0,0,0,0,0,0,0,0,0,0,0,0-.2,0-.3,0-.3-.2-.4-.4-.5.5-5.3.5-10.7.2-15.9-.3-6.7-.9-14.4-4.7-20.2-.3-.5-.9-.9-1.5-.5-11.3,6.5-8.9,24.8-6.7,35.4.5,2.7,1.3,5.3,2.1,7.9.7,2,1.5,4.8,3.6,5.8.5.2,1,.4,1.5.5-.8,1.4-1.9,2.7-3.2,3.7-3.1,2.4-7.1,3.6-11.1,4.6,3.2-5.1,2.2-13.7-.5-18.2-.3-.5-.9-.8-1.5-.5-8.2,4.1-10.1,14.6-10.7,22.8-.1,1.9-.2,3.9-.2,5.9-3.3,2.9-6.9,5.8-11.2,5.2-.4-.2-.9-.3-1.3,0-.2.2-.4.4-.6.5-.2,0-.5,0-.7,0-.3.1-.5.3-.8.4-.5.3-.8.9-.5,1.5,0,.2.2.3.4.4-1.1,2.8,0,6.1,2.8,8.3.4.3,1,.3,1.4,0,2.6-2.7,3.3-6,1.5-8.9,3.4-.3,6.3-2.4,9.1-4.7.1,3.8.5,7.6,1.3,11.3-.2,0-.4,0-.7,0-2.2.9-4.5,1.3-6.6,2.3-2.4,1.2-4.9,2.3-7.3,3.4-4.2,1.9-8.4,3.5-12.7,5-.5-2.3-.9-4.5-1.2-6.8-3.2-20.1-1.7-40.7-.9-60.9,0-1.2-1.8-1.7-2.2-.5-1.1,3.8-2.5,7.4-4,11,0-.7-.1-1.4-.4-2.3-.2-.6-1-.7-1.5-.5-4.3,1.6-8.1,4.4-11.3,7.6-1.4,1.3-2.5,2.9-3.4,4.5-1.4,2.3-3-.8-4.6-.6-3,.4-5.7,4.1-7.3,6.5-.5.8-1.1,3-2.7,2-.4-.3-.7-.8-1.1-1.1-.6-.5-1.4-.8-2.2-.4-2.6,1.3-4.7,5.1-5.4,7.8,0,0-.9,3.2-1.7,2.1-.3-.5-.5-1-.8-1.5-.4-.7-1-1.4-1.9-1.4-2.3-.2-3.1,3.6-3.7,5.1-.4,1.2-3.1,5.9-4.3,3-.5-1.2-.7-2.5-1.6-3.4-.6-.6-1.6-.4-1.9.4-.5,1.3-.6,2.6-.6,4,0,.9,0,1.7-.2,2.6,0,0,0,.2,0,.3-.7-2.6-.8-6.6.9-8,1.1-.9-.4-2.6-1.5-1.7-1.8,1.5-2,3.9-1.9,6.1,0,1.8.1,5.1,1.4,6.6,2.2,2.5,3.2-2.2,3.7-5.8.4,1.1,1,2.1,2.6,2.3,3,.3,5-4,5.9-6.2.4-1,.7-2,1.2-2.9,0,.1.5,1,.6,1.2.4.9.9,1.5,1.8,2,2.8,1.3,4-3.7,4.5-5.2.5-1.4,1.6-2.7,2.5-3.9.8-1,.9-1.4,1.6-.6.7.8,1.6,1.2,2.6,1.4,1.5.2,2.6-.8,3.3-1.9,1.4-2.1,2.6-3.9,4.5-5.7,2.1-1.9,2.7.4,4.6.5,1.6.1,2.6-.9,3.5-2,3.4-4.6,7.3-8.5,12.6-10.7,0,.7,0,1.6.1,2.1,0,.6.5.9.9.9-.9,2-1.7,3.9-2.6,5.9-3,6.9-5.7,13.9-8.5,20.8-2.9,7.1-5.8,14.2-8.4,21.4-1.2,3.3-2.3,6.7-3.7,9.9-1.2,2.7-2.6,5.4-2.8,8.4,0,.9.8,1.4,1.6,1.1,5-2.1,10.2-3.2,15.4-4.7,5.1-1.5,10-3.3,15-5,.6-.2,1.2-.4,1.8-.6,1.7,7.6,3.8,15.1,6.3,22.4,3,9.1,5.9,18.8,12.4,26,1,1.1,2.6-.4,1.7-1.5-6.6-7.3-9.4-17.2-12.3-26.3-2.3-7-4.3-14.2-5.9-21.4,4.1-1.5,8.2-3,12.2-4.7,2.5-1.1,4.9-2.2,7.3-3.3,2.5-1.2,5.1-1.8,7.7-2.8,0,0,0,0,.2-.1.5,2.1,1.1,4.2,1.9,6.1.4,1.1,2,.7,2.1-.4.6-8.2,3.1-16.9.7-25-.3-.9-1.1-1.2-1.8-.6-.7.5-1.5,1.2-2.3,1.8,0-.5,0-1,0-1.6.2-7.5,1.5-18.2,8.6-22.6,2.4,5.1,3,14.8-2.7,17.4-1.1.5-.5,2.4.7,2.1,5.4-1.5,11.3-2.7,16-5.9,2.3-1.5,3.8-3.7,4.9-6,1.9-1,2.9-3.8,3.3-6.5,1.3,2.1,3.3,3.6,6.1,2.9,3.9-.9,6.8-4.5,10.5-6.1,5.3-2.2,11,3.4,16.2,4.1,8.5,1.2,15.9-6.3,20.9-12,.9-1.1-.5-2.8-1.5-1.7ZM648.9,401.9c-1.8-1.9-2.2-4.4-.3-6.3,1.9,1.9,1.9,4.2.3,6.3ZM630.9,414c-5.5,1.8-11,3.8-16.6,5.5-4.4,1.3-8.8,2.2-13,3.8.5-2.1,1.5-4.1,2.4-6,1.4-3.2,2.4-6.6,3.7-9.9,2.7-7.2,5.6-14.3,8.4-21.4,2.8-7,5.6-13.9,8.5-20.8,1.8-4.2,3.7-8.3,5.3-12.6-.8,18.4-1.5,36.8,1.4,55,.3,2,.7,4,1.1,6-.4.1-.8.3-1.2.4ZM665,386.9c1.2,5.6.2,11.6-.5,17.3-1.2-5-1.7-10.2-1.8-15.4.8-.7,1.6-1.4,2.3-2ZM690.5,358.2c-.3,3-.8,6.1-1.9,9-.6.1-1.3,0-2,0-.8-.2-1.4-2.2-1.6-2.8-1.7-4-2.6-8.4-3.3-12.7-1.4-8.5-2.9-23.1,5.3-28.9,2.8,5,3.4,11.2,3.8,16.8.4,6.2.2,12.5-.3,18.8Z"/><path class="cls-1" d="M695,350c1.3,0,2.3-.5,3.2-1.4.4-.4.5-1.1.1-1.6-.4-.4-1.1-.5-1.6-.1-.5.5-.9.9-1.6.9-.6,0-1.1.4-1.2,1,0,.6.4,1.2,1,1.2Z"/><path class="cls-1" d="M95.3,169.4c-.5-2.6-.8-5.3-.8-7.9,0-16.5,9.1-34.4,21.5-41.2,3.3-1.8,6.3-2.7,9-2.7,7.8,0,12.7,6.7,12.7,15.5s-6.1,22.3-21.2,31.4c1.7,7.3,10.3,11.4,19.2,11.4s18.7-4.3,21.8-14.3c1.4-4.5,2.1-9.4,2.1-14.3,0-17.8-9.2-35.9-27.2-35.9s-10.7,1.3-17,4.6c16.8-18.3,37.4-31.4,37.4-49s-.2-2.7-.4-4.1c-1.8-10.3-13.5-15.4-24.6-17.7.7,2.1,1,4.3,1,6.6,0,22.8-30.5,55.9-36.8,89-.5-10.2-1.1-20.8-1.1-31.1,0-24,2.9-47,15-61.8-7.7,2.4-14.7,3.3-21.1,3.3s-16.3-1.5-23.2-2.8c3.7,7.4,5.3,29.1,5.3,52.4s-2.4,58.3-6.8,68.7h34.9Z"/><path class="cls-1" d="M218.8,169.6c28.7,0,57.4-19.8,57.4-59.2s-26.7-65-54.8-65-22.1,4-31.9,13.1c3.5-.8,6.9-1.1,10.2-1.1,27.2,0,43.9,23.6,51.9,48.6,3.2,9.8,4.5,18.3,4.5,25.5,0,19.8-10.2,30.3-23,30.3-25.3,0-45.1-35.7-50.3-65.8-1.1-6.3-1.5-11.3-1.5-14.9,0-6.7,1.5-9.4,3.7-9.4,5.9,0,16.7,19.5,16.7,35.1s-.3,4.9-.9,7.2c17.8-3,24.9-13.3,24.9-24.1s-12.3-29.3-28.5-29.3-9.3,1.2-14.3,3.8c-14,7.5-21.3,27.8-21.3,46,0,39.4,28.7,59.2,57.4,59.2Z"/><path class="cls-1" d="M289.9,79.9c10.8,0,24.5-6,37.7-19.7,9.8-10.2,18.8-13.8,25.4-13.8s11.3,3.9,11.3,8.4-9.4,3.3-23.6,12.3c-42.2,27-45.1,81-74,101.5,5.2-2.6,12.8-3.5,21.6-3.5,21.3,0,50.6,5.5,73.1,5.5s24.6-.9,24.6-9.4-1.1-5.4-3.8-9.2c-5.3-7.3-13.6-16.7-13.6-28.8s3-15.3,11.4-24.5c-4.3-1.1-8.4-1.5-12.3-1.5-17.7,0-28.8,10.3-28.8,21.9s2.9,12.1,9.3,17.3c5.4,4.5,11,7.3,16,11.3,4,3.3,5.7,5.8,5.7,8,0,6.1-13.3,8.3-24.7,8.3s-10.8-.5-13.6-1.3c-13.3-3.9-19.4-16.3-19.4-30.8,0-23,15.5-51.3,41.6-58.2,11.9-3.2,19.2-11,19.2-18.1s-7.5-13.6-25.3-13.6-43.5,8.8-56.7,8.8-12.2-2.2-13.7-8.8c-4.5,7.9-6.4,14.8-6.4,20.3,0,11.1,7.9,17.3,19,17.3Z"/><path class="cls-1" d="M266.8,168.7c-1.3.7-2.5,1.4-3.5,2.3,1.2-.7,2.4-1.5,3.5-2.3Z"/><path class="cls-1" d="M561.8,169.4c-5.5-18.5-8.3-40.7-8.3-62.7s2.4-41.4,7-58.9h-35.4c4.6,17.4,6.9,38,6.9,58.8s-2.8,44.4-8.3,62.8h38Z"/><path class="cls-1" d="M157.5,209.4c0-18-25.9-24.8-42.1-24.8s-27.9,2.4-42.8,2.4-7.2-.2-11-.5c4,9.5,7.5,37.8,7.5,67.1s-2.2,47-8,62.5h25.7c0,0,12.8,0,12.8,0-1.1-4-1.7-7.7-1.7-11.4,0-30.1,34.8-50.6,54.4-80.3,3.7-5.8,5.3-10.8,5.3-15.1ZM95.7,290.5c-.7-11.7-1.5-25.3-1.5-38.7s1.2-33.5,5.3-45.2c4-11.2,11-18.4,16.7-18.4h0c5,0,9,5.5,9,18.4,0,44.5-29.6,58.1-29.6,83.8Z"/><path class="cls-1" d="M248.5,287.4c0-2.8-.4-5.7-1.1-8.8-9,4.7-17.9,7.4-25.9,7.4-12.3,0-22.8-6-29.5-20.4-2.4-5-3.6-10.2-3.6-14.4s2.1-9.4,6.5-9.4,5.9,1.3,10.2,4.4c10,7.4,20.3,11.5,28.2,11.5s14.5-4.8,14.5-15.4-.6-7.2-1.8-11.8c-4.7,5.6-10,7.3-15.4,7.3s-14.9-3.1-22.3-4.1c-1.8-.2-3.4-.3-5-.3-14.2,0-20.1,8.7-20.1,19.5s.7,7.9,2.1,12c-8-11.8-12-26.5-12-38.1s4.5-19.6,11.3-19.6,9.3,2.1,15,4.9c8.5,4.2,16.3,6,23.2,6,18.7,0,30.4-13.2,30.4-26.4s-1.1-8.4-3.7-12.1c-7.5,7.6-22.1,8.5-22.1,8.5-2.6.3-5.3.4-8.1.4-18.8,0-41.7-5.2-46.1-8.8,1.8,4.6,2.5,8.6,2.5,12.3,0,18.3-17.9,27.2-21.1,49.9-.5,3.1-.7,6.3-.7,9.4,0,28.2,17.7,56,48.6,63.3,3.7.9,7.6,1.4,11.3,1.4,18,0,34.8-10.1,34.8-28.9Z"/><path class="cls-1" d="M326.3,199.9c-6.2-12.8-19.1-14.8-43.4-14.8,3.1,1.8,5.7,7.1,8.3,14.5-27.3,26.4-30.2,126.8-59.5,126.8,3.6,6.8,10.4,10.2,17.9,10.2,15.8,0,34.9-14.7,34.9-42.5s-.4-8-1.1-12.3c-.6-3.7-1.4-7.6-2.2-12,10.5,11.4,23.4,12.8,32.9,34,3.7,8.1,10.7,12.5,22.3,12.5h15.4c-14.6-36.9-15.7-96.3-25.5-116.4ZM279.3,248.5c0-13.9,3.2-29,14.1-42.2,6.8,23.4,11.9,59.2,14.7,75.3-11.8-10.3-28.8-13.3-28.8-33.1Z"/><path class="cls-1" d="M434.1,283.6c0,13.1-6.2,30.1-12.7,35.9,4.5,1.2,8.6,1.8,12.3,1.8,19.2,0,27.9-14.5,27.9-29.9s-12.2-36.4-30.6-36.4-6.7.6-10,1.9c14.9-16,32.8-33.6,32.8-47.5s-25.1-24.7-42.2-24.7-26.4,1.6-40.1,1.6-8.8-.2-13.3-.6c3.6,10.5,6.5,42.7,6.5,72.8s-2,49.4-7.3,57.9h25.6c0,0,12.9,0,12.9,0-.7-3.8-1-7.4-1-10.8,0-23.8,16-38.7,27.5-38.7,8.6,0,11.7,7.2,11.7,16.8ZM392,290.5c-.7-11.5-1.5-24.9-1.5-38.2s1.2-33.9,5.4-45.7c3.9-11.2,11-18.4,16.7-18.4s9,5.4,9,18.3c-.5,46.3-23.4,47.8-29.6,84Z"/><path class="cls-1" d="M479.4,315.1c22,0,43.6,6,60,6s13.2-1.2,18.1-4.2c5.3-3.4,7.4-7.2,7.4-11.3,0-14.7-26.8-33.7-26.8-57s2.4-14.6,8.8-22.4c-5.5-1.4-10.6-2.1-15.2-2.1-17.5,0-27.7,9.4-27.7,20.9s4.1,15.1,12.9,22c6.8,5,13.2,8.3,19.3,13,9.1,6.8,12.6,13.9,12.6,19.8,0,9.3-8.5,16-18.7,16s-13.9-2.9-20-9.8c-9.6-11-15.4-34.9-15.4-59.4s5.3-47.8,17.6-61.5h-45.7c4,6.8,5.5,28.8,5.5,52.9s-3.1,70.5-6.9,78c4.6-.6,9.3-.9,14.1-.9Z"/><path class="cls-1" d="M587.9,250.1c11.1,5.1,25.6,10,37.4,16.2,12.4,6.5,17,14.9,17,22.6,0,11.2-10,20.9-20.3,20.9s-21.5-12.3-21.5-29.2,1.3-11.6,4.3-17.5c-4.2-2.2-8.4-3.1-12.5-3.1-13.6,0-25.3,10.5-25.3,24.4s1.2,9.3,4.1,14.2c7.7,13.7,25.5,19.3,41.2,19.3,30.7,0,51.5-21.5,51.5-44.2s-25.3-35.9-52.4-42.7c-25.5-6.4-35.2-13-35.2-17.7s6.7-6.5,16.2-6.5c16.7,0,42.6,8,57.2,30.8,9.7-7.4,13.7-15.1,13.7-22.3,0-16.6-20.8-30.7-41.6-31.9-1.2,0-2.5,0-3.7,0-29.6,0-53,19.4-53,38.7s6.8,20.8,22.9,28.1Z"/><path class="cls-1" d="M580.8,150.1c4.7,5.7,10.4,10.3,17.2,13.9,6.7,3.6,14.4,5.4,22.9,5.4s18.2-2,24.9-6c6.7-4,11.5-8.9,14.6-14.7,3-5.8,4.2-11.9,3.5-18.4-.7-6.4-3.5-12.1-8.3-17.1-.8,1.4-2,3.2-3.5,5.4-1.5,2.2-3.5,4.4-5.9,6.6-2.4,2.1-5.3,3.9-8.6,5.4-3.3,1.5-7.4,2.2-12.1,2.2s-7-.7-10.7-2c-3.7-1.3-7.1-3.4-10.2-6.2-3.1-2.8-5.7-6.4-7.9-10.7-2.1-4.3-3.4-9.5-3.9-15.5-.5-5.9,0-11.3,1.6-16.3,1.6-5,3.9-9.4,7-13.1,3.1-3.7,6.8-6.7,11.2-8.8,4.4-2.1,9.2-3.3,14.3-3.4,3.3-.1,6.4.3,9.3,1.2,2.9.9,5.4,2.2,7.4,3.8,2.1,1.6,3.7,3.5,4.8,5.8,1.1,2.2,1.7,4.7,1.6,7.3-.2,4-1.4,7.2-3.5,9.6-2.1,2.4-5.2,3.6-9.5,3.7-2.3,0-4.3-.6-5.9-1.7-1.6-1.1-2.8-2.5-3.6-4.1-.8-1.6-1.2-3.2-1.3-4.9,0-1.7.3-3,1.1-4.1.2,2.8,1.2,4.7,3,5.8,1.8,1.1,3.7,1.5,5.6,1.3,2.2-.2,3.9-1.4,5-3.4,1.1-2,1.4-4.1.9-6.3-.8-3-2.6-5.1-5.4-6.2-2.8-1.1-6-.9-9.6.9-2.5,1.3-4.5,3.1-5.9,5.4-1.4,2.3-2.3,4.8-2.8,7.6-.5,2.8-.5,5.6,0,8.5.5,2.9,1.3,5.5,2.6,7.8,1.5,2.6,3.4,4.8,5.8,6.6,2.4,1.7,4.9,3,7.7,3.7,2.8.7,5.6,1,8.4.8,2.8-.2,5.5-.9,8-2.1,3.3-1.6,6.1-4.1,8.2-7.3,2.1-3.3,3.5-7,4.1-11.1.6-4.1.4-8.3-.8-12.7-1.2-4.4-3.5-8.3-6.9-11.9-3.3-3.6-7.4-6.4-12.1-8.5-4.7-2.1-9.7-3.4-15-4-5.3-.6-10.7-.5-16.2.3-5.5.8-10.8,2.4-15.7,4.7-4.4,2-8.4,4.6-12.1,7.9-3.7,3.3-6.9,7.3-9.6,12-2.7,4.7-4.8,10-6.4,15.9-1.6,5.9-2.3,12.5-2.3,19.8s1.3,14.7,3.8,21.8c2.5,7.2,6.2,13.6,10.9,19.3Z"/><path class="cls-1" d="M391,58.3c1.3,2.2,1.9,4.8,1.9,7.7v82.6c0,.9,0,2.2-.2,3.8-.1,1.6-.4,3.4-.7,5.2-.3,1.9-.8,3.7-1.4,5.5-.6,1.8-1.3,3.3-2.2,4.4h44.8c-5.4-10.3-10.1-21.1-14.2-32.4-1.8-4.8-3.5-9.8-5.1-15.2-1.7-5.4-3.1-11-4.3-16.7-1.2-5.7-2.2-11.6-2.9-17.5-.7-5.9-1-11.7-.9-17.4,1,.8,3,3.2,6.1,7,3.1,3.9,6.7,9.8,10.7,17.7,4,7.9,8.1,18,12.4,30.3,4.2,12.3,8,27.1,11.2,44.5.9-2.5,2.1-6.1,3.6-10.6,1.5-4.5,3.2-9.6,5-15.3,1.8-5.7,3.7-11.7,5.7-18.2,2-6.4,4-12.8,5.9-19,2-6.3,3.8-12.2,5.6-17.9,1.8-5.7,3.3-10.7,4.6-15v76.7c0,.9-.2,2.2-.4,3.8-.1,1.6-.4,3.4-.7,5.2-.3,1.9-.8,3.7-1.3,5.5-.5,1.8-1.2,3.3-2.1,4.4h41.3c-.9-1.2-1.6-2.6-2.1-4.4-.5-1.8-1-3.6-1.3-5.5-.3-1.9-.6-3.6-.8-5.2-.2-1.6-.3-2.9-.3-3.8v-83.5c0-.9,0-2.2.3-3.9.2-1.7.5-3.5.8-5.3.3-1.9.8-3.7,1.3-5.5.5-1.8,1.2-3.3,2.1-4.4h-36.7l-17.4,54.3c-4.1-10.9-8.9-20.6-14.5-29.1-2.3-3.7-5-7.3-7.8-10.8-2.9-3.5-6-6.6-9.5-9.2-3.5-2.7-7.2-4.8-11.1-6.5-3.9-1.7-8.2-2.5-12.7-2.5s-3.3.2-5.2.7c-1.9.5-3.7,1.2-5.5,2.2-1.8,1-3.3,2.2-4.6,3.7-1.3,1.5-2.1,3.3-2.4,5.4,2.1.6,3.9,2,5.1,4.2Z"/><path class="cls-1" d="M345,351.1c1-.9,2-1.6,3.1-2.1s2.1-.9,3.1-1.2c1-.3,1.9-.5,2.6-.6.8,0,1.3-.2,1.7-.2h.7v22.2c0,.3,0,.6,0,1s-.1.8-.2,1.3c0,.4-.2.9-.4,1.3-.2.4-.4.8-.6,1.1h11.7c-.3-.3-.5-.6-.6-1.1-.2-.4-.3-.9-.4-1.3-.1-.4-.2-.9-.2-1.3,0-.4,0-.7,0-1v-22.2h.8c.3,0,.9,0,1.6.2.8,0,1.6.3,2.6.6,1,.3,2,.7,3.1,1.2,1.1.5,2.1,1.2,3.1,2.1v-6.7h-31.8v6.7Z"/><path class="cls-1" d="M404.1,368.1c-.2-.6-.4-1.2-.6-1.7-.2-.6-.4-1.1-.6-1.6-.2-.5-.4-.9-.6-1.3-.3-.5-.6-1-1.1-1.4-.4-.4-.9-.7-1.4-1-.5-.3-1-.5-1.5-.7-.5-.2-1-.3-1.4-.4,1-.6,1.9-1.2,2.8-1.9.9-.7,1.6-1.4,2.3-2.2.7-.8,1.2-1.6,1.5-2.5.3-.9.5-1.8.3-2.8-.1-1-.5-1.9-1.1-2.6s-1.3-1.3-2.2-1.7c-.9-.4-1.8-.8-2.8-1s-2.1-.4-3.1-.5c-1.1-.1-2.1-.2-3.1-.2-1,0-1.9,0-2.6,0h-10.5c.3.3.5.6.6,1.1.2.4.3.9.4,1.3,0,.4.2.9.2,1.3,0,.4,0,.7.1.9v20.2c0,.2,0,.5-.1.9,0,.4-.1.8-.2,1.3,0,.4-.2.9-.4,1.3-.2.4-.4.8-.6,1h11.8c-.3-.3-.5-.6-.6-1-.2-.4-.3-.9-.4-1.3,0-.4-.2-.9-.2-1.3,0-.4,0-.7,0-.9v-5.5c.3-.2.7-.3,1.2-.5.4-.2.9-.4,1.5-.6.3.2.6.4.9.8.3.4.6.9.9,1.6.3.7.6,1.6.8,2.8.2,1.1.4,2.5.5,4.2,0,.3,0,.6-.1.8s-.2.4-.3.6c-.1.2-.3.3-.4.4h11.9c-.4-1.4-.7-2.8-1.1-4.1-.2-.6-.3-1.1-.5-1.7ZM394.7,355.2c-.4,1-1,2-1.6,2.9-.6.9-1.3,1.6-2.1,2.2-.7.6-1.4,1.1-2.1,1.4v-15.7c.7-.2,1.5-.3,2.4-.1.9.1,1.6.5,2.2,1,.5.5.9,1.1,1.2,2,.3.9.5,1.9.5,3.2,0,1.1-.2,2.2-.6,3.2Z"/><path class="cls-1" d="M418,348.1c0-.4.1-.8.2-1.3,0-.4.2-.9.4-1.3.2-.4.4-.8.6-1.1h-11.8c.3.3.5.6.6,1.1.2.4.3.9.4,1.3,0,.4.2.9.2,1.3,0,.4,0,.7.1.9v20.2c0,.2,0,.5-.1.9,0,.4-.1.8-.2,1.3,0,.4-.2.9-.4,1.3-.2.4-.4.8-.6,1.1h11.8c-.3-.3-.5-.6-.6-1.1-.2-.4-.3-.9-.4-1.3,0-.4-.2-.9-.2-1.3,0-.4,0-.7,0-.9v-20.2c0-.2,0-.5,0-.9Z"/><path class="cls-1" d="M444.6,361c-.9-1.4-2-2.7-3.3-4-.1,0-.3-.2-.4-.3,0,0-.2-.2-.3-.3.4-.3.9-.7,1.3-1,.4-.4.7-.8,1-1.3.3-.5.5-1,.6-1.5.1-.5.2-1.1.1-1.7,0-1-.3-1.9-.7-2.6-.4-.8-1.1-1.5-1.9-2-.9-.6-2.1-1-3.6-1.3s-3.4-.5-5.7-.5h-10.8c.3.3.5.6.6,1.1.2.4.3.9.4,1.3,0,.4.2.9.2,1.3,0,.4,0,.7.1.9v20.2c0,.2,0,.5-.1.9,0,.4-.1.8-.2,1.3,0,.4-.2.9-.4,1.3-.2.4-.4.8-.6,1h11.8c-.3-.3-.5-.7-.7-1.2s-.3-1-.4-1.6c1.2.8,2.5,1.5,3.8,2,1.3.5,2.5.8,3.8,1,1.2.1,2.3,0,3.4-.2,1-.3,1.9-.8,2.6-1.6.8-.9,1.3-2,1.5-3.2.2-1.2.1-2.5-.2-3.9-.3-1.4-.9-2.8-1.8-4.2ZM431.4,345.9c1.1-.2,2-.1,3,.3.9.4,1.6,1,2.2,1.8.6.8.9,1.7,1,2.8.1,1.1,0,2.2-.6,3.3-1.9-.9-3.7-1.4-5.6-1.5v-6.7ZM437.5,367.2c-.2.6-.6,1.1-1.2,1.5-.6.4-1.4.5-2.3.3-.9-.2-1.8-.6-2.7-1.3v-13.1c.8.5,1.6,1.2,2.4,2,.8.9,1.5,1.8,2.1,2.7s1,1.9,1.4,2.9c.3,1,.5,1.9.6,2.7,0,.8,0,1.6-.3,2.2Z"/><path class="cls-1" d="M463.2,345.5c.2.4.3.9.4,1.3,0,.4.2.9.2,1.3,0,.4,0,.7.1,1v15.1h0c0,1.2,0,2.2,0,3.1,0,.9-.2,1.6-.4,2.2-.2.6-.5,1.1-1,1.4-.4.3-1,.5-1.8.5s-1.4-.2-1.8-.5c-.4-.3-.7-.8-.9-1.4-.2-.6-.3-1.3-.4-2.2s0-1.9,0-3h0v-15.1c0-.3,0-.6,0-1,0-.4.1-.8.2-1.3,0-.4.2-.9.4-1.3.2-.4.4-.8.6-1.1h-11.8c.3.3.5.6.6,1.1.2.4.3.9.4,1.3,0,.4.2.9.2,1.3,0,.4,0,.7.1,1v15.1h0c0,1.3.3,2.6,1,3.8.6,1.2,1.5,2.2,2.6,3.1,1.1.9,2.4,1.6,3.9,2.1s3.1.8,4.8.8,3.3-.3,4.8-.8c1.5-.5,2.8-1.2,3.9-2.1s2-1.9,2.7-3.1c.7-1.2,1-2.4,1-3.8v-15.1c0-.3,0-.6,0-1,0-.4.1-.8.2-1.3,0-.4.2-.9.4-1.3.2-.4.4-.8.6-1.1h-11.8c.3.3.5.6.6,1.1Z"/><path class="cls-1" d="M476.1,351.1c1-.9,2-1.6,3.1-2.1s2.1-.9,3.1-1.2c1-.3,1.9-.5,2.6-.6.8,0,1.3-.2,1.7-.2h.7v22.2c0,.3,0,.6,0,1s-.1.8-.2,1.3c0,.4-.2.9-.4,1.3-.2.4-.4.8-.6,1.1h11.7c-.3-.3-.5-.6-.6-1.1-.2-.4-.3-.9-.4-1.3-.1-.4-.2-.9-.2-1.3,0-.4,0-.7,0-1v-22.2h.8c.3,0,.9,0,1.6.2.8,0,1.6.3,2.6.6,1,.3,2,.7,3.1,1.2,1.1.5,2.1,1.2,3.1,2.1v-6.7h-31.8v6.7Z"/><path class="cls-1" d="M510.7,370.2c0,.4-.1.8-.2,1.3,0,.4-.2.9-.4,1.3-.2.4-.4.8-.6,1.1h21.8v-6.6c-.9.8-1.8,1.4-2.8,1.9-1,.5-2,.9-3,1.2s-1.9.5-2.7.6c-.8.1-1.5.2-2,.3h-.8v-12c.6.1,1.2.3,1.9.5.7.2,1.5.5,2.2.8s1.6.7,2.3,1.1c.8.4,1.5.9,2.1,1.5v-10.7c-.6.5-1.3,1-2,1.4-.7.4-1.5.7-2.2,1-.8.3-1.5.5-2.3.7-.7.2-1.4.4-2,.5v-8.9h.7c.3,0,.9,0,1.7.2.8,0,1.7.3,2.7.6s2,.7,3.1,1.2c1.1.5,2.1,1.2,3.1,2.1v-6.7h-21.8c.3.3.5.6.6,1.1.2.4.3.9.4,1.3,0,.4.2.9.2,1.3,0,.4,0,.7,0,.9v20.2c0,.2,0,.5,0,.9Z"/></svg>